<!-- Generator: Adobe Illustrator 19.2.1, SVG Export Plug-In  -->
<svg version="1.1"
	 xmlns="http://www.w3.org/2000/svg" xmlns:xlink="http://www.w3.org/1999/xlink" xmlns:a="http://ns.adobe.com/AdobeSVGViewerExtensions/3.0/"
	 x="0px" y="0px" width="113.023px" height="45.15px" viewBox="0 0 113.023 45.15"
	 style="enable-background:new 0 0 113.023 45.15;" xml:space="preserve">
<style type="text/css">
	.st0{fill:#FFFFFF;}
</style>
<defs>
</defs>
<path class="st0" d="M42.968,22.1c-0.05-0.1-0.05-0.15-0.15-0.2c-2.8-1.45-5.75-2.25-8.5-2.25c-1.1,0-2.2,0.1-3.2,0.35
	c-2.1,0.5-4.7,1.8-5.85,3.95c-0.65,1.25-0.75,2.6-0.2,4c-0.15,0.2-0.3,0.4-0.45,0.65c-0.05-1.65-0.3-3.2-0.7-4.7
	c1.5-2.45,2.05-5.6,1.35-8.45c-0.75-3.25-3.05-5.9-6.75-7.9c-2.6-1.35-5.45-2.25-8.2-3.05c-0.8-0.25-1.65-0.5-2.5-0.75
	c-2.1-0.65-3.75-1.35-5.25-2.35c-0.5-0.3-0.95-0.65-1.35-1c-0.2-0.15-0.35-0.25-0.5-0.4c0,0-0.05,0-0.1,0
	c-0.05,0-0.05,0.05-0.05,0.05c-0.65,5.65-1.15,11.65,0.9,17.4c1.5,4.2,4.15,7.6,7.3,9.3c1.65,0.9,3.55,1.4,5.6,1.4
	c2.2,0,4.3-0.55,6.1-1.6c0.05,0,0.05-0.05,0.05-0.1c0-0.05-0.05-0.05-0.1-0.05c-1.5,0.65-3.2,0.95-4.9,0.95s-3.4-0.35-4.85-1
	c-3.45-1.55-5.5-5-6.4-6.9c-1.4-2.75-2.1-5.9-2.25-9.7c-0.1-2.05,0.05-4.1,0.25-6.05c2.35,1.35,5.1,2.1,7.55,2.75l0.4,0.1
	c3,0.8,6.1,1.65,8.85,3.25c2.85,1.65,4.7,4,5.35,6.8c0.5,2.25,0.25,4.65-0.65,6.85c-0.2-0.6-0.4-1.1-0.6-1.6
	c-1.45-3.4-4.15-6.25-7.8-8.25c-1.1-0.65-2.3-1.2-3.5-1.7c-2.3-1.05-4.75-2.15-6.45-3.95c-0.05-0.05-0.05-0.05-0.1,0
	c-0.05,0-0.05,0.05,0,0.1c1.45,2.4,4.05,3.9,6.55,5.35c0.85,0.5,1.65,0.95,2.4,1.45c3.25,2.15,5.45,4.45,6.7,7.1
	c2.85,5.85,2.3,13.4-1.6,23.1c0,0.05,0,0.1,0.05,0.1c0,0,0,0,0.05,0s0.05,0,0.05-0.05c3.05-4.55,4.9-10,5.15-14.9
	c3.3-3.7,8.05-5.25,12.65-6.75c0.3-0.1,0.6-0.2,0.9-0.3c0.05,0,0.05-0.05,0.05-0.1c0-0.05-0.05-0.05-0.05-0.05
	c-0.65-0.05-1.3-0.1-1.9-0.1c-2.8,0-5.15,0.55-7.25,1.75c-1.05,0.6-2.55,1.6-3.75,3.1c-0.3-3.6,2.8-5.5,5.9-6.05
	c2.95-0.5,6.3,0,9.5,1.4c-0.75,2.55-2.8,5.1-5.4,6.75c-1.55,1-3,1.6-4.45,1.85c-0.5,0.1-1,0.15-1.45,0.15c-0.9,0-2.1-0.15-2.75-1
	c-0.05-0.05-0.05-0.05-0.1,0c-0.05,0-0.05,0.05-0.05,0.1c0.8,1.55,2.9,1.8,4.1,1.8l0,0c0.45,0,0.9-0.05,1.3-0.1
	c1.9-0.25,3.9-1.05,5.7-2.35c1.65-1.15,3.05-2.7,4-4.45C41.568,25.85,43.168,22.9,42.968,22.1z"/>
<g>
	<path class="st0" d="M59.423,9.65l2.9,9.1h0.1l0.8-2.9l2.1-6.5h4.3v0.7l-5.9,16.6h-2.5l-2.7-8.2h-0.1l-2.7,8.2h-2.4l-6-16.6v-0.7
		h4.4l2.2,6.4l0.8,2.9h0.1l2.9-9.1C58.323,9.65,58.723,9.65,59.423,9.65z"/>
	<path class="st0" d="M81.323,24.25h-6.7l-1,2.1h-4.3v-0.6l7.7-16.7h1.9l7.7,16.7v0.6h-4.3L81.323,24.25z M77.923,16.05l-1.9,4.5
		h3.9L77.923,16.05z"/>
	<path class="st0" d="M93.223,22.55h6.2c0,1.5,0,2.5,0,3.9c-3.5,0-7.1,0-10.6,0V9.35c1.5,0,2.9,0,4.4,0
		C93.223,18.15,93.223,15.25,93.223,22.55z"/>
	<path class="st0" d="M106.823,22.55h6.2c0,1.5,0,2.5,0,3.9c-3.5,0-7.1,0-10.6,0V9.35c1.5,0,2.9,0,4.4,0
		C106.823,18.15,106.823,15.25,106.823,22.55z"/>
	<path class="st0" d="M53.323,34.05c2.2,0,4.4,1.1,5,3.8h-2.7c-0.4-0.9-1.2-1.3-2.2-1.3c-1.7,0-2.7,1.4-2.7,3c0,1.8,1,3,2.7,3
		c1.1,0,1.8-0.3,2.3-1.3h-2.4v-2.4h5.1c0.1,1.1,0.1,2.1-0.3,3.2c-0.8,2.2-2.8,3.1-4.8,3.1c-2.7,0-5.5-1.8-5.5-5.5
		C47.823,35.85,50.623,34.05,53.323,34.05z"/>
	<path class="st0" d="M66.823,43.55h-4.2l-0.6,1.4h-2.7v-0.4l4.8-10.5h1.2l4.9,10.5v0.4h-2.7L66.823,43.55z M64.723,38.35l-1.2,2.8
		h2.5L64.723,38.35z"/>
	<path class="st0" d="M80.723,44.55v0.4h-3.1l-1.8-3.2h-1.5v3.2c-0.9,0-1.9,0-2.8,0c0-3.6,0-7.2,0-10.8c1.6,0,3.2,0,4.7,0
		c4.2,0,5,5.1,2.3,7L80.723,44.55z M76.323,36.65c-0.6,0-1.3,0-2,0c0,0.9,0,1.8,0,2.7h2C77.823,39.25,77.823,36.65,76.323,36.65z"/>
	<path class="st0" d="M86.423,44.95h-4.1v-10.8h4.1C93.423,34.15,93.423,44.85,86.423,44.95z M85.123,42.45h1.3c3.4,0,3.4-5.8,0-5.8
		h-1.3V42.45z"/>
	<path class="st0" d="M100.523,36.65c-1.6,0-2.4,0-4,0v1.5h3.7c0,0.8,0,1.6,0,2.4h-3.7c0,0.6,0,1.2,0,1.9c1.6,0,2.5,0,4.1,0
		c0,0.8,0,1.6,0,2.4c-2.5,0-4.4,0-6.9,0c0-3.6,0-7.2,0-10.8c2.5,0,4.2,0,6.7,0C100.523,34.95,100.523,35.75,100.523,36.65z"/>
	<path class="st0" d="M105.823,39.65v5.3c-1,0-1.9,0-2.8,0v-10.8h1l5.4,5.3v-5.3c0.9,0,1.9,0,2.8,0v10.8h-1L105.823,39.65z"/>
</g>
</svg>